<?xml version="1.0" encoding="UTF-8" standalone="no"?>
<svg
   xmlns:dc="http://purl.org/dc/elements/1.1/"
   xmlns:cc="http://creativecommons.org/ns#"
   xmlns:rdf="http://www.w3.org/1999/02/22-rdf-syntax-ns#"
   xmlns:svg="http://www.w3.org/2000/svg"
   xmlns="http://www.w3.org/2000/svg"
   xmlns:sodipodi="http://sodipodi.sourceforge.net/DTD/sodipodi-0.dtd"
   xmlns:inkscape="http://www.inkscape.org/namespaces/inkscape"
   width="63.000195mm"
   height="88.000275mm"
   viewBox="0 0 63.000195 88.000275"
   version="1.1"
   id="svg2181"
   inkscape:version="1.0.1 (c497b03c, 2020-09-10)"
   sodipodi:docname="d7.svg">
  <defs
     id="defs2175" />
  <sodipodi:namedview
     id="base"
     pagecolor="#ffffff"
     bordercolor="#666666"
     borderopacity="1.0"
     inkscape:pageopacity="0.0"
     inkscape:pageshadow="2"
     inkscape:zoom="0.35"
     inkscape:cx="119.05549"
     inkscape:cy="166.29974"
     inkscape:document-units="mm"
     inkscape:current-layer="layer1"
     inkscape:document-rotation="0"
     showgrid="false"
     inkscape:window-width="1252"
     inkscape:window-height="943"
     inkscape:window-x="0"
     inkscape:window-y="23"
     inkscape:window-maximized="0" />
  <metadata
     id="metadata2178">
    <rdf:RDF>
      <cc:Work
         rdf:about="">
        <dc:format>image/svg+xml</dc:format>
        <dc:type
           rdf:resource="http://purl.org/dc/dcmitype/StillImage" />
        <dc:title></dc:title>
      </cc:Work>
    </rdf:RDF>
  </metadata>
  <g
     inkscape:label="Layer 1"
     inkscape:groupmode="layer"
     id="layer1"
     transform="translate(-74.333234,-104.16653)">
    <g
       transform="matrix(0.2822231,0,0,0.2822231,-503.76854,112.75879)"
       id="DIAMOND-7">
      <rect
         y="-30.444927"
         x="2048.3857"
         height="311.81104"
         width="223.22835"
         id="rect6826-9"
         style="display:inline;fill:#ffffff;fill-opacity:1;stroke:none;stroke-width:1.00057;stroke-miterlimit:4;stroke-dasharray:none;stroke-opacity:1"
         rx="10.677597"
         ry="10.66401" />
      <path
         inkscape:connector-curvature="0"
         id="path6858-4"
         d="m 2065.6031,39.528358 c -2.1609,-3.568597 -4.4344,-7.037098 -7.2754,-9.999997 2.841,-2.962801 5.1145,-6.4313 7.2754,-10 2.1609,3.5687 4.4343,7.037199 7.2754,10 -2.8411,2.962899 -5.1145,6.4314 -7.2754,9.999997 z"
         style="display:inline;opacity:1;fill:#c8102e;fill-opacity:1" />
      <path
         inkscape:connector-curvature="0"
         id="path6860-1"
         d="m 2211.7664,50.24996 c -5.1862,-8.5648 -10.6425,-16.8891 -17.461,-24 6.8185,-7.1108 12.2748,-15.4351 17.461,-24 5.1862,8.5649 10.6424,16.8892 17.4609,24 -6.8185,7.1109 -12.2747,15.4352 -17.4609,24 z"
         style="display:inline;opacity:1;fill:#c8102e;fill-opacity:1" />
      <path
         style="display:inline;opacity:1;fill:#c8102e;fill-opacity:1"
         d="m 2254.3976,231.393 c -2.1609,-3.5686 -4.4344,-7.0371 -7.2754,-10 2.841,-2.9628 5.1145,-6.4313 7.2754,-10 2.1609,3.5687 4.4343,7.0372 7.2754,10 -2.8411,2.9629 -5.1145,6.4314 -7.2754,10 z"
         id="path6862-0"
         inkscape:connector-curvature="0" />
      <path
         inkscape:connector-curvature="0"
         id="path6864-5"
         d="m 2108.2336,50.24996 c -5.1862,-8.5648 -10.6425,-16.8891 -17.461,-24 6.8185,-7.1108 12.2748,-15.4351 17.461,-24 5.1862,8.5649 10.6424,16.8892 17.4609,24 -6.8185,7.1109 -12.2747,15.4352 -17.4609,24 z"
         style="display:inline;opacity:1;fill:#c8102e;fill-opacity:1" />
      <path
         style="display:inline;opacity:1;fill:#c8102e;fill-opacity:1"
         d="m 2160,99.83912 c -5.1862,-8.5648 -10.6425,-16.88911 -17.461,-24 6.8185,-7.110804 12.2748,-15.435104 17.461,-24.000003 5.1862,8.564899 10.6424,16.889199 17.4609,24.000003 -6.8185,7.11089 -12.2747,15.4352 -17.4609,24 z"
         id="path6870-5"
         inkscape:connector-curvature="0" />
      <path
         inkscape:connector-curvature="0"
         id="path6874-1"
         d="m 2108.2336,149.42827 c -5.1862,-8.5648 -10.6425,-16.8891 -17.461,-24 6.8185,-7.1108 12.2748,-15.4351 17.461,-24 5.1862,8.5649 10.6424,16.8892 17.4609,24 -6.8185,7.1109 -12.2747,15.4352 -17.4609,24 z"
         style="display:inline;opacity:1;fill:#c8102e;fill-opacity:1" />
      <path
         inkscape:connector-curvature="0"
         id="path6876-6"
         d="m 2211.7664,149.44384 c -5.1862,-8.5648 -10.6425,-16.8891 -17.461,-24 6.8185,-7.1108 12.2748,-15.4351 17.461,-24 5.1862,8.5649 10.6424,16.8892 17.4609,24 -6.8185,7.1109 -12.2747,15.4352 -17.4609,24 z"
         style="display:inline;opacity:1;fill:#c8102e;fill-opacity:1" />
      <path
         style="display:inline;opacity:1;fill:#c8102e;fill-opacity:1"
         d="m 2108.2336,248.67634 c -5.1862,-8.5648 -10.6425,-16.8891 -17.461,-24 6.8185,-7.1108 12.2748,-15.4351 17.461,-24 5.1862,8.5649 10.6424,16.8892 17.4609,24 -6.8185,7.1109 -12.2747,15.4352 -17.4609,24 z"
         id="path6880-5"
         inkscape:connector-curvature="0" />
      <path
         style="display:inline;opacity:1;fill:#c8102e;fill-opacity:1"
         d="m 2211.7664,248.68328 c -5.1862,-8.5648 -10.6425,-16.8891 -17.461,-24 6.8185,-7.1108 12.2748,-15.4351 17.461,-24 5.1862,8.5649 10.6424,16.8892 17.4609,24 -6.8185,7.1109 -12.2747,15.4352 -17.4609,24 z"
         id="path6882-9"
         inkscape:connector-curvature="0" />
      <path
         d="m 2060.5289,16.3892 c 2.1703,-11.4733 4.4806,-20.0867 10.5465,-29.4347 h -12.3297 v 4.0238 h -3.2734 v -7.5855 h 18.0343 l 2.2243,3.5617 c -6.4426,7.0329 -12.3388,29.7673 -11.2948,29.4347 z m 0,0"
         id="path25-43-4-8-8"
         inkscape:connector-curvature="0"
         style="opacity:1;fill:#c8102e;fill-opacity:1" />
      <path
         d="m 2259.4688,234.5321 c -2.1703,11.4732 -4.4806,20.0867 -10.5465,29.4347 h 12.3297 v -4.0239 h 3.2734 v 7.5856 h -18.0343 l -2.2243,-3.5617 c 6.4426,-7.0329 12.3388,-29.7673 11.2948,-29.4347 z m 0,0"
         id="path25-7-0-7-6"
         inkscape:connector-curvature="0"
         style="opacity:1;fill:#c8102e;fill-opacity:1" />
    </g>
  </g>
</svg>
